<?xml version="1.0" encoding="utf-8"?>
<!-- Generator: Adobe Illustrator 24.1.1, SVG Export Plug-In . SVG Version: 6.00 Build 0)  -->
<svg version="1.1" id="Layer_1" xmlns="http://www.w3.org/2000/svg" xmlns:xlink="http://www.w3.org/1999/xlink" x="0px" y="0px"
	 viewBox="0 0 187.8 22.9" style="enable-background:new 0 0 187.8 22.9;" xml:space="preserve">
<style type="text/css">
	.st0{fill:#FF5500;}
</style>
<path class="st0" d="M114.4,10.1h-2.3l0.7-3.1h2.3l0.8-3.5h5L120,7h2.7l-0.7,3.1h-2.7l-1.7,7.8h-5L114.4,10.1z"/>
<path class="st0" d="M81.9,11.4c0.1-0.7-0.2-1.1-0.7-1.4c-0.4-0.2-1.1-0.3-1.7-0.3c-2.2,0-3.3,1.2-3.6,2.7c-0.4,1.7,0.4,2.7,2.4,2.7
	c1.4,0,2.5-0.4,3.2-1.8h5.2c-1.5,4.5-5.7,5-9.1,5c-4.6,0-7.9-1.4-6.9-5.9s4.8-5.9,9.4-5.9c4.7,0,7.2,1.2,7,4.8h-5.2V11.4z"/>
<path class="st0" d="M101.7,17.9h-4.8l0.3-1.2l0,0c-0.7,0.7-2.5,1.6-4.9,1.6c-2.8,0-4.5-1.2-3.9-4.3l1.4-7h5l-1.2,5.8
	c-0.3,1.4,0.3,2,1.5,2c1.6,0,2.5-1,2.9-2.6L99,7h5L101.7,17.9z"/>
<path class="st0" d="M107.2,3.2h5L109,17.9h-5L107.2,3.2z"/>
<path class="st0" d="M121.6,13.4h5.2l-1,4.5h-5.2L121.6,13.4z"/>
<path class="st0" d="M140.3,11.4c0.1-0.7-0.2-1.1-0.7-1.4c-0.4-0.2-1.1-0.3-1.7-0.3c-2.2,0-3.3,1.2-3.6,2.7
	c-0.4,1.7,0.4,2.7,2.4,2.7c1.4,0,2.5-0.4,3.2-1.8h5.2c-1.5,4.5-5.7,5-9.1,5c-4.6,0-7.9-1.4-6.9-5.9s4.8-5.9,9.4-5.9
	c4.7,0,7.2,1.2,7,4.8h-5.2V11.4z"/>
<path class="st0" d="M155.7,6.5c5.6,0,7.7,1.9,6.8,5.9s-3.7,5.9-9.3,5.9s-7.7-1.9-6.8-5.9C147.3,8.4,150.1,6.5,155.7,6.5z
	 M153.9,15.1c2,0,3.1-0.9,3.4-2.7c0.4-1.7-0.3-2.6-2.3-2.6s-3.1,0.9-3.4,2.6C151.3,14.2,151.9,15.1,153.9,15.1z"/>
<path class="st0" d="M165.5,7h4.8L170,8.5l0,0c1-1,2.4-1.8,4.5-1.8s2.9,0.7,3.2,1.8c0.9-1,2.4-1.8,4.4-1.8c2.4,0,4.1,1,3.5,3.7
	l-1.6,7.5h-5l1.3-6.2c0.2-1.1-0.2-1.5-1-1.5c-1,0-1.8,0.5-2.1,1.8l-1.3,5.8h-4.8l1.3-6.2c0.2-1.1-0.2-1.5-1-1.5
	c-1,0-1.8,0.5-2.1,1.8l-1.2,5.8h-5L165.5,7z"/>
<path class="st0" d="M6.7,3.2h5l-1.6,7.4L14.7,7h6.6l-5.8,4.1l4,6.9h-6.8l-1.8-3.7l-1.8,1.3L8.6,18h-5L6.7,3.2z"/>
<path class="st0" d="M37.7,14.8H42l1-4.7h-4.2L39.4,7h4.2l0.8-3.5h5L48.6,7h4.2l-0.7,3.1h-4.2l-1,4.7h4.2l-0.7,3.1h-4.2l-0.7,3.5h-5
	l0.7-3.5H37L37.7,14.8z"/>
<path class="st0" d="M54.5,10.3c0.6-1.5,1.4-2.4,2.8-3c1.3-0.5,3.2-0.8,5.8-0.8c5.1,0,6.9,1.1,6.2,4.4l-1.5,7H63
	c0,0,0.1-0.7,0.2-1.1c-1.3,1-3.1,1.5-5.8,1.5c-3.4,0-5.3-0.9-4.7-3.7c0.4-2,2.1-3.3,5.8-3.4l4.2-0.2c1-0.1,1.4-0.3,1.5-0.9
	C64.4,9.4,63.5,9,62.1,9c-1.1,0-2.3,0.2-2.8,1.2h-4.8V10.3z M63.8,12.9c-0.9,0.2-2.3,0.3-4.1,0.5c-0.9,0.1-1.4,0.4-1.6,1.1
	c-0.2,0.8,0.3,1.2,1.6,1.2c1.7,0,3.6-0.4,4-2.3L63.8,12.9z"/>
<path class="st0" d="M21.9,10.3c0.6-1.5,1.4-2.4,2.8-3c1.3-0.5,3.2-0.8,5.8-0.8c5.1,0,6.9,1.1,6.2,4.4l-1.5,7h-4.8
	c0,0,0.1-0.7,0.2-1.1c-1.3,1-3.1,1.5-5.8,1.5c-3.4,0-5.3-0.9-4.7-3.7c0.4-2,2.1-3.3,5.8-3.4l4.2-0.2c1-0.1,1.4-0.3,1.5-0.9
	C31.8,9.4,30.9,9,29.5,9c-1.1,0-2.3,0.2-2.8,1.2h-4.8V10.3z M31.3,12.9c-0.9,0.2-2.3,0.3-4.1,0.5c-0.9,0.1-1.4,0.4-1.6,1.1
	c-0.2,0.8,0.3,1.2,1.6,1.2c1.7,0,3.6-0.4,4-2.3L31.3,12.9z"/>
</svg>
