<svg width="280" height="29" viewBox="0 0 280 29" fill="none" xmlns="http://www.w3.org/2000/svg">
<path d="M170.271 10.6726H166.725L167.778 5.89799H171.324L172.482 0.491455H180.101L178.942 5.89799H183.12L182.067 10.6726H177.889L175.326 22.6793H167.673L170.271 10.6726Z" fill="#FF5500"/>
<path d="M120.313 12.6386C120.418 11.5854 120.067 10.9535 119.295 10.5322C118.698 10.1811 117.645 10.0056 116.662 10.0056C113.221 10.0056 111.641 11.9014 111.15 14.1482C110.588 16.7111 111.782 18.3611 114.836 18.3611C116.978 18.3611 118.698 17.7643 119.681 15.5876H127.721C125.439 22.5389 119.014 23.3463 113.748 23.3463C106.691 23.3463 101.636 21.2048 103.11 14.2535C104.585 7.3725 110.553 5.23096 117.61 5.23096C124.807 5.23096 128.704 7.05654 128.353 12.6386H120.313Z" fill="#FF5500"/>
<path d="M150.716 22.6443H143.308L143.694 20.7837H143.624C142.606 21.872 139.832 23.3114 136.146 23.3114C131.898 23.3114 129.16 21.4156 130.143 16.7463L132.425 5.86304H140.078L138.217 14.7452C137.761 16.8516 138.709 17.7644 140.499 17.7644C142.887 17.7644 144.361 16.2548 144.888 13.7622L146.573 5.86304H154.226L150.716 22.6443Z" fill="#FF5500"/>
<path d="M159.212 0H166.865L162.056 22.6442H154.402L159.212 0Z" fill="#FF5500"/>
<path d="M181.329 15.7983H189.369L187.895 22.6794H179.855L181.329 15.7983Z" fill="#FF5500"/>
<path d="M210.082 12.6386C210.188 11.5854 209.837 10.9535 209.064 10.5322C208.467 10.1811 207.414 10.0056 206.431 10.0056C202.991 10.0056 201.411 11.9014 200.919 14.1482C200.358 16.7111 201.551 18.3611 204.606 18.3611C206.747 18.3611 208.467 17.7643 209.45 15.5876H217.49C215.208 22.5389 208.783 23.3463 203.517 23.3463C196.461 23.3463 191.405 21.2048 192.88 14.2535C194.354 7.3725 200.322 5.23096 207.379 5.23096C214.576 5.23096 218.473 7.05654 218.157 12.6386H210.082Z" fill="#FF5500"/>
<path d="M233.85 5.1958C242.486 5.1958 245.646 8.0746 244.347 14.2535C243.013 20.4324 238.66 23.3112 229.988 23.3112C221.352 23.3112 218.192 20.4324 219.491 14.2535C220.825 8.10971 225.213 5.1958 233.85 5.1958ZM231.076 18.3611C234.166 18.3611 235.781 16.9568 236.307 14.2535C236.904 11.6204 235.921 10.181 232.797 10.181C229.742 10.181 228.092 11.6204 227.531 14.2535C227.004 16.9568 227.987 18.3611 231.076 18.3611Z" fill="#FF5500"/>
<path d="M248.876 5.898H256.284L255.792 8.17997H255.862C257.407 6.60014 259.513 5.40649 262.708 5.40649C266.008 5.40649 267.167 6.52993 267.658 8.17997C269.028 6.63525 271.31 5.40649 274.399 5.40649C278.085 5.40649 280.683 6.98633 279.841 11.0939L277.383 22.6442H269.73L271.766 13.1652C272.117 11.4801 271.52 10.9183 270.186 10.9183C268.606 10.9183 267.413 11.6907 266.991 13.7269L265.06 22.6442H257.653L259.689 13.1652C260.04 11.4801 259.443 10.9183 258.109 10.9183C256.529 10.9183 255.336 11.6907 254.914 13.7269L253.019 22.6091H245.365L248.876 5.898Z" fill="#FF5500"/>
<path d="M4.80971 0H12.4631L10.0758 11.3046L16.992 5.86293H27.1731L18.2558 12.1471L24.4347 22.6793H14.0429L11.2344 17.0271L8.46087 18.9931L7.6534 22.6793H0L4.80971 0Z" fill="#FF5500"/>
<path d="M52.4507 17.8696H58.9455L60.4552 10.6726H53.9603L55.0135 5.89799H61.5084L62.6669 0.491455H70.3203L69.1618 5.89799H75.6566L74.6034 10.6726H68.1086L66.5989 17.8696H73.0938L72.0406 22.6442H65.5457L64.4223 28.0156H56.7689L57.8923 22.6442H51.3975L52.4507 17.8696Z" fill="#FF5500"/>
<path d="M78.1841 10.9886C79.132 8.70658 80.3958 7.26718 82.4672 6.3895C84.5385 5.54692 87.3822 5.23096 91.4196 5.23096C99.2485 5.23096 101.952 6.98632 100.899 11.9716L98.6166 22.6793H91.2089C91.2089 22.6793 91.4195 21.6261 91.56 21.0293C89.5238 22.6091 86.7503 23.3463 82.6778 23.3463C77.517 23.3463 74.568 21.9772 75.5159 17.659C76.1479 14.6046 78.7809 12.6386 84.4683 12.3929L90.9983 12.0769C92.5781 11.9716 93.1749 11.6205 93.3505 10.7077C93.5962 9.61938 92.2972 9.09276 90.1206 9.09276C88.3652 9.09276 86.5747 9.37362 85.8726 10.9886H78.1841ZM92.5781 15.0259C91.244 15.3068 89.0323 15.4823 86.2237 15.7281C84.7843 15.8685 84.0119 16.3249 83.8013 17.3781C83.5204 18.5366 84.3279 19.2739 86.2237 19.2739C88.7865 19.2739 91.8057 18.642 92.4026 15.7632L92.5781 15.0259Z" fill="#FF5500"/>
<path d="M28.1211 10.9886C29.069 8.70658 30.3329 7.26718 32.4042 6.3895C34.4755 5.54692 37.3192 5.23096 41.3566 5.23096C49.1855 5.23096 51.8888 6.98632 50.8356 11.9716L48.5536 22.6793H41.1459C41.1459 22.6793 41.3566 21.6261 41.497 21.0293C39.4608 22.6091 36.6873 23.3463 32.6148 23.3463C27.4541 23.3463 24.505 21.9772 25.4529 17.659C26.0849 14.6046 28.7179 12.6386 34.4053 12.3929L40.9353 12.0769C42.5151 11.9716 43.1119 11.6205 43.2875 10.7077C43.5332 9.61938 42.2343 9.09276 40.0576 9.09276C38.3022 9.09276 36.5118 9.37362 35.8096 10.9886H28.1211ZM42.5151 15.0259C41.181 15.3068 38.9693 15.4823 36.1607 15.7281C34.7213 15.8685 33.9489 16.3249 33.7383 17.3781C33.4574 18.5366 34.2649 19.2739 36.1607 19.2739C38.7235 19.2739 41.7427 18.642 42.3396 15.7632L42.5151 15.0259Z" fill="#FF5500"/>
</svg>
