<?xml version="1.0" encoding="utf-8"?>
<!-- Generator: Adobe Illustrator 24.1.1, SVG Export Plug-In . SVG Version: 6.00 Build 0)  -->
<svg version="1.1" id="Layer_1" xmlns="http://www.w3.org/2000/svg" xmlns:xlink="http://www.w3.org/1999/xlink" x="0px" y="0px"
	 viewBox="0 0 1885 768.2" style="enable-background:new 0 0 1885 768.2;" xml:space="preserve">
<style type="text/css">
	.st0{fill:#F5F5F5;}
	.st1{fill:#FF5500;}
</style>
<path class="st0" d="M334.3,24.1h-130v495.6c0,58.9-4.4,76.3-33,76.3s-33-17.3-33-76.3v-43.3H8.5v52c0,139.5,58,197.5,162.9,197.5
	s162.9-58,162.9-197.5L334.3,24.1L334.3,24.1z"/>
<path class="st1" d="M465.7,407.1V227.3c0-71.2-28.3-105-94.5-105s-95.5,33.8-95.5,105v10.1h75.8v-10.1c0-24.2,5.1-34.3,19.7-34.3
	c13.6,0,18.7,5.1,18.7,23.7c-0.5,53.6-119.2,42.4-119.2,158.6c0,59.6,29.8,85.3,63.6,85.3c28.8,0,43.9-13.1,55.5-41.9
	c0,9.1,2.5,29.3,15.1,36.8h65.6C465.7,439.4,465.7,428.3,465.7,407.1z M389.9,377.3c-5.1,6.1-12.1,12.6-22.2,12.6
	c-12.6,0-21.2-8.6-21.2-28.3c0-30.8,27.8-40.9,43.4-63.6L389.9,377.3L389.9,377.3z"/>
<path class="st1" d="M628.6,127.3H454.4V198h92.4l-92.4,186.9v70.7h174.2v-70.7h-92.4L628.6,198V127.3z"/>
<path class="st1" d="M795.3,127.3H621.1V198h92.4l-92.4,186.9v70.7h174.2v-70.7h-92.4L795.3,198V127.3z"/>
<path class="st1" d="M1057.6,111.8c20.7,0,37.8-14.6,37.8-32.4c0-18.7-17.2-33.3-37.8-33.3c-20.7,0-37.8,14.6-37.8,33.3
	C1019.7,97.2,1036.9,111.8,1057.6,111.8z M1019.7,127v328.2h75.8V127H1019.7z"/>
<path class="st1" d="M1197.2,263.8c-39.4-28.8-51-34.8-51-52c0-9.1,4.1-19.2,15.6-19.2c11.6,0,17.7,10.1,17.7,39.4h75.8
	c0-71.2-29.8-110.1-93.4-110.1s-91.4,38.9-91.4,89.9c0,53.6,31.9,74.3,63.1,96c46,31.9,51,42.4,51,57.5c0,14.1-3,24.2-17.2,24.2
	c-14.2,0-21.2-10.1-21.2-49.5h-75.8c0,91.4,30.8,120.2,97,120.2c66.2,0,92.9-38.9,92.9-95C1260.3,314.4,1235.6,292.1,1197.2,263.8z"
	/>
<path class="st1" d="M1360,197.7V127h-80.8c26.8-6.6,35.3-41.4,35.3-75.8h-75.8c0.5,31.4-5.6,67.2-35.3,75.8v70.7h30.3v147.4
	c0,81.3,13.6,110.1,84.8,110.1h41.4v-70.7h-21.2c-19.2,0-29.3-5.1-29.3-39.4V197.7H1360z"/>
<path class="st1" d="M1348.3,345.1c0,81.3,33.8,115.2,95,115.2s95-33.8,95-115.2V237c0-81.3-33.8-115.2-95-115.2s-95,33.8-95,115.2
	V345.1z M1424.1,345.1V237c0-34.3,2.5-44.4,19.2-44.4c16.1,0,19.2,10.1,19.2,44.4v108.1c0,34.3-2.5,44.4-19.2,44.4
	C1426.7,389.5,1424.1,379.5,1424.1,345.1z"/>
<path class="st1" d="M1666,121.9c-34.8,0-52.6,23.7-60.6,41.9V127h-75.8v328.2h75.8V221.9c0-22.7,6.6-29.3,19.2-29.3
	s19.2,6.6,19.2,29.3v25.3h75.8V227C1719.4,155.8,1710.9,121.9,1666,121.9z"/>
<path class="st1" d="M1800.8,127v233.3c0,24.2-6.6,29.3-19.2,29.3c-12.6,0-19.2-5.1-19.2-29.3V127h-75.8v228.3
	c0,71.2,8.6,105,55.1,105c33.3,0,51-23.7,59-41.9v27.8c0,34.3-10.1,39.4-29.3,39.4h-69.7v70.7h89.9c71.2,0,84.8-28.8,84.8-110.1V127
	H1800.8z"/>
<path class="st0" d="M956.2,51.3v164.2h-47.5V51.3h-75.8v404h75.8V291.1h47.5v164.2h75.8v-404H956.2z"/>
</svg>
