<svg width="722" height="500" viewBox="0 0 722 500" fill="none" xmlns="http://www.w3.org/2000/svg">
<path d="M219.126 0.853558H133.973V325.568C133.973 364.171 131.135 375.524 112.401 375.524C93.6677 375.524 90.8293 364.171 90.8293 325.568V297.184H5.67683V331.245C5.67683 422.642 43.7116 460.677 112.401 460.677C181.091 460.677 219.126 422.642 219.126 331.245V0.853558Z" fill="white"/>
<path d="M305.228 252.01V134.217C305.228 87.5635 286.699 65.3947 243.354 65.3947C200.009 65.3947 180.818 87.5635 180.818 134.217V140.835H230.449V134.217C230.449 118.335 233.758 111.718 243.354 111.718C252.287 111.718 255.596 115.026 255.596 127.269C255.265 162.342 177.509 155.063 177.509 231.165C177.509 270.208 197.031 287.083 219.2 287.083C238.06 287.083 247.986 278.48 255.596 259.62C255.596 265.576 257.251 278.811 265.523 283.774H308.537C305.228 273.186 305.228 265.907 305.228 252.01ZM255.596 232.488C252.287 236.459 247.655 240.76 241.038 240.76C232.766 240.76 227.141 235.135 227.141 222.231C227.141 202.047 245.339 195.43 255.596 180.54V232.488Z" fill="#FF5500"/>
<path d="M411.986 68.7035H297.833V115.026H358.384L297.833 237.451V283.774H411.986V237.451H351.435L411.986 115.026V68.7035Z" fill="#FF5500"/>
<path d="M521.227 68.7035H407.074V115.026H467.625L407.074 237.451V283.774H521.227V237.451H460.677L521.227 115.026V68.7035Z" fill="#FF5500"/>
<path d="M340.108 305.322C349.132 305.322 356.616 298.939 356.616 291.235C356.616 283.091 349.132 276.707 340.108 276.707C331.083 276.707 323.599 283.091 323.599 291.235C323.599 298.939 331.083 305.322 340.108 305.322ZM323.599 311.926V455H356.616V311.926H323.599Z" fill="#FF5500"/>
<path d="M400.965 371.577C383.797 359.03 378.734 356.389 378.734 348.905C378.734 344.943 380.495 340.54 385.557 340.54C390.62 340.54 393.261 344.943 393.261 357.709H426.279C426.279 326.673 413.292 309.724 385.557 309.724C357.823 309.724 345.717 326.673 345.717 348.905C345.717 372.237 359.584 381.262 373.231 390.727C393.261 404.594 395.463 409.216 395.463 415.82C395.463 421.983 394.142 426.385 387.979 426.385C381.816 426.385 378.734 421.983 378.734 404.814H345.717C345.717 444.655 359.144 457.201 387.979 457.201C416.814 457.201 428.48 440.252 428.48 415.82C428.48 393.588 417.694 383.903 400.965 371.577Z" fill="#FF5500"/>
<path d="M471.879 342.742V311.926H436.661C448.327 309.064 452.069 293.876 452.069 278.908H419.052C419.272 292.556 416.63 308.184 403.644 311.926V342.742H416.85V407.015C416.85 442.453 422.793 455 453.83 455H471.879V424.184H462.634C454.27 424.184 449.868 421.983 449.868 407.015V342.742H471.879Z" fill="#FF5500"/>
<path d="M466.837 407.015C466.837 442.453 481.585 457.201 508.218 457.201C534.852 457.201 549.6 442.453 549.6 407.015V359.911C549.6 324.472 534.852 309.724 508.218 309.724C481.585 309.724 466.837 324.472 466.837 359.911V407.015ZM499.854 407.015V359.911C499.854 344.943 500.955 340.54 508.218 340.54C515.262 340.54 516.583 344.943 516.583 359.911V407.015C516.583 421.983 515.482 426.385 508.218 426.385C500.955 426.385 499.854 421.983 499.854 407.015Z" fill="#FF5500"/>
<path d="M605.259 309.724C590.071 309.724 582.367 320.07 578.845 327.994V311.926H545.828V455H578.845V353.307C578.845 343.402 581.707 340.54 587.21 340.54C592.712 340.54 595.574 343.402 595.574 353.307V364.313H628.591V355.508C628.591 324.472 624.849 309.724 605.259 309.724Z" fill="#FF5500"/>
<path d="M664.034 311.926V413.618C664.034 424.184 661.172 426.385 655.67 426.385C650.167 426.385 647.305 424.184 647.305 413.618V311.926H614.288V411.417C614.288 442.453 618.03 457.201 638.281 457.201C652.808 457.201 660.512 446.856 664.034 438.932V451.038C664.034 466.006 659.632 468.207 651.267 468.207H620.891V499.023H660.072C691.108 499.023 697.051 486.476 697.051 451.038V311.926H664.034Z" fill="#FF5500"/>
<path d="M295.909 278.908V350.446H275.218V278.908H242.201V455H275.218V383.463H295.909V455H328.926V278.908H295.909Z" fill="white"/>
</svg>
