<?xml version="1.0" encoding="utf-8"?>
<!-- Generator: Adobe Illustrator 24.1.1, SVG Export Plug-In . SVG Version: 6.00 Build 0)  -->
<svg version="1.1" id="Layer_1" xmlns="http://www.w3.org/2000/svg" xmlns:xlink="http://www.w3.org/1999/xlink" x="0px" y="0px"
	 viewBox="0 0 1885 768.2" style="enable-background:new 0 0 1885 768.2;" xml:space="preserve">
<style type="text/css">
	.st0{fill:#F5F5F5;}
	.st1{fill:#FF5500;}
</style>
<path class="st0" d="M335.8,22.5H205.2v497.8c0,59.2-4.4,76.6-33.1,76.6S139,579.5,139,520.3v-43.5H8.5V529
	c0,140.1,58.3,198.4,163.6,198.4S335.7,669.1,335.7,529L335.8,22.5L335.8,22.5z"/>
<path class="st1" d="M467.8,407.2V226.6c0-71.5-28.4-105.5-94.9-105.5s-95.9,34-95.9,105.5v10.1h76.1v-10.1
	c0-24.3,5.1-34.5,19.8-34.5c13.7,0,18.8,5.1,18.8,23.8C391.2,269.7,272,258.5,272,375.2c0,59.9,29.9,85.7,63.9,85.7
	c28.9,0,44.1-13.2,55.8-42.1c0,9.1,2.5,29.4,15.2,37h65.9C467.8,439.7,467.8,428.5,467.8,407.2z M391.7,377.3
	c-5.1,6.1-12.2,12.7-22.3,12.7c-12.7,0-21.3-8.6-21.3-28.4c0-30.9,27.9-41.1,43.6-63.9L391.7,377.3L391.7,377.3z"/>
<path class="st1" d="M631.4,126.2h-175v71h92.8l-92.8,187.7v71h175v-71h-92.8l92.8-187.7V126.2z"/>
<path class="st1" d="M798.9,126.2h-175v71h92.8l-92.8,187.7v71h175v-71h-92.8l92.8-187.7V126.2z"/>
<path class="st1" d="M1062.4,110.6c20.8,0,38-14.7,38-32.5c0-18.8-17.3-33.5-38-33.5c-20.8,0-38,14.7-38,33.5
	C1024.3,95.9,1041.6,110.6,1062.4,110.6z M1024.3,125.9v329.7h76.1V125.9H1024.3z"/>
<path class="st1" d="M1202.6,263.3c-39.6-28.9-51.2-35-51.2-52.2c0-9.1,4.1-19.3,15.7-19.3c11.7,0,17.8,10.1,17.8,39.6h76.1
	c0-71.5-29.9-110.6-93.8-110.6s-91.8,39.1-91.8,90.3c0,53.8,32,74.6,63.4,96.4c46.2,32,51.2,42.6,51.2,57.8c0,14.2-3,24.3-17.3,24.3
	s-21.3-10.1-21.3-49.7h-76.1c0,91.8,30.9,120.7,97.4,120.7s93.3-39.1,93.3-95.4C1266,314.1,1241.2,291.7,1202.6,263.3z"/>
<path class="st1" d="M1366.1,196.9v-71h-81.2c26.9-6.6,35.5-41.6,35.5-76.1h-76.1c0.5,31.5-5.6,67.5-35.5,76.1v71h30.4V345
	c0,81.7,13.7,110.6,85.2,110.6h41.6v-71h-21.3c-19.3,0-29.4-5.1-29.4-39.6V196.9H1366.1z"/>
<path class="st1" d="M1354.4,345c0,81.7,34,115.7,95.4,115.7s95.4-34,95.4-115.7V236.4c0-81.7-34-115.7-95.4-115.7
	s-95.4,34-95.4,115.7V345z M1430.5,345V236.4c0-34.5,2.5-44.6,19.3-44.6c16.2,0,19.3,10.1,19.3,44.6V345c0,34.5-2.5,44.6-19.3,44.6
	C1433.1,389.6,1430.5,379.5,1430.5,345z"/>
<path class="st1" d="M1673.5,120.8c-35,0-52.8,23.8-60.9,42.1v-37h-76.1v329.7h76.1V221.2c0-22.8,6.6-29.4,19.3-29.4
	c12.7,0,19.3,6.6,19.3,29.4v25.4h76.1v-20.3C1727.2,154.8,1718.6,120.8,1673.5,120.8z"/>
<path class="st1" d="M1808.9,125.9v234.4c0,24.3-6.6,29.4-19.3,29.4c-12.7,0-19.3-5.1-19.3-29.4V125.9h-76.1v229.3
	c0,71.5,8.6,105.5,55.3,105.5c33.5,0,51.2-23.8,59.3-42.1v27.9c0,34.5-10.1,39.6-29.4,39.6h-70v71h90.3c71.5,0,85.2-28.9,85.2-110.6
	V125.9H1808.9z"/>
<path class="st0" d="M960.5,49.8v164.9h-47.7V49.8h-76.1v405.8h76.1V290.7h47.7v164.9h76.1V49.8H960.5z"/>
</svg>
