<svg width="1885" height="746" viewBox="0 0 1885 746" fill="none" xmlns="http://www.w3.org/2000/svg">
<path d="M328.311 0.329726H200.729V486.843C200.729 544.68 196.476 561.691 168.408 561.691C140.34 561.691 136.088 544.68 136.088 486.843V444.315H8.50547V495.348C8.50547 632.286 65.4921 689.273 168.408 689.273C271.325 689.273 328.311 632.286 328.311 495.348V0.329726Z" fill="white"/>
<path d="M457.316 376.315V199.829C457.316 129.929 429.554 96.7136 364.611 96.7136C299.668 96.7136 270.915 129.929 270.915 199.829V209.744H345.277V199.829C345.277 176.033 350.235 166.118 364.611 166.118C377.996 166.118 382.954 171.076 382.954 189.418C382.458 241.968 265.957 231.061 265.957 345.083C265.957 403.581 295.207 428.864 328.422 428.864C356.679 428.864 371.552 415.975 382.954 387.717C382.954 396.641 385.433 416.471 397.826 423.907H462.274C457.316 408.043 457.316 397.137 457.316 376.315ZM382.954 347.066C377.996 353.015 371.056 359.46 361.141 359.46C348.747 359.46 340.32 351.032 340.32 331.698C340.32 301.457 367.586 291.542 382.954 269.234V347.066Z" fill="#FF5500"/>
<path d="M617.27 101.671H446.237V171.076H536.959L446.237 354.502V423.907H617.27V354.502H526.548L617.27 171.076V101.671Z" fill="#FF5500"/>
<path d="M780.944 101.671H609.911V171.076H700.633L609.911 354.502V423.907H780.944V354.502H690.222L780.944 171.076V101.671Z" fill="#FF5500"/>
<path d="M1038.42 86.4732C1058.74 86.4732 1075.6 72.0965 1075.6 54.7454C1075.6 36.4027 1058.74 22.026 1038.42 22.026C1018.09 22.026 1001.24 36.4027 1001.24 54.7454C1001.24 72.0965 1018.09 86.4732 1038.42 86.4732ZM1001.24 101.346V423.582H1075.6V101.346H1001.24Z" fill="#FF5500"/>
<path d="M1175.48 235.693C1136.81 207.436 1125.41 201.487 1125.41 184.631C1125.41 175.708 1129.38 165.793 1140.78 165.793C1152.18 165.793 1158.13 175.708 1158.13 204.461H1232.49C1232.49 134.561 1203.24 96.3881 1140.78 96.3881C1078.32 96.3881 1051.05 134.561 1051.05 184.631C1051.05 237.18 1082.28 257.506 1113.02 278.823C1158.13 310.055 1163.09 320.466 1163.09 335.338C1163.09 349.219 1160.11 359.134 1146.23 359.134C1132.35 359.134 1125.41 349.219 1125.41 310.551H1051.05C1051.05 400.281 1081.29 428.539 1146.23 428.539C1211.18 428.539 1237.45 390.366 1237.45 335.338C1237.45 285.268 1213.16 263.455 1175.48 235.693Z" fill="#FF5500"/>
<path d="M1335.2 170.75V101.346H1255.88C1282.15 94.9009 1290.58 60.6943 1290.58 26.9835H1216.22C1216.71 57.7198 1210.76 92.9179 1181.52 101.346V170.75H1211.26V315.509C1211.26 395.324 1224.65 423.582 1294.55 423.582H1335.2V354.177H1314.38C1295.54 354.177 1285.62 349.219 1285.62 315.509V170.75H1335.2Z" fill="#FF5500"/>
<path d="M1323.84 315.509C1323.84 395.324 1357.06 428.539 1417.04 428.539C1477.03 428.539 1510.24 395.324 1510.24 315.509V209.419C1510.24 129.603 1477.03 96.3881 1417.04 96.3881C1357.06 96.3881 1323.84 129.603 1323.84 209.419V315.509ZM1398.2 315.509V209.419C1398.2 175.708 1400.68 165.793 1417.04 165.793C1432.91 165.793 1435.88 175.708 1435.88 209.419V315.509C1435.88 349.219 1433.4 359.134 1417.04 359.134C1400.68 359.134 1398.2 349.219 1398.2 315.509Z" fill="#FF5500"/>
<path d="M1635.6 96.3881C1601.39 96.3881 1584.04 119.688 1576.11 137.535V101.346H1501.75V423.582H1576.11V194.546C1576.11 172.238 1582.55 165.793 1594.95 165.793C1607.34 165.793 1613.79 172.238 1613.79 194.546V219.334H1688.15V199.504C1688.15 129.603 1679.72 96.3881 1635.6 96.3881Z" fill="#FF5500"/>
<path d="M1767.97 101.346V330.381C1767.97 354.177 1761.53 359.134 1749.13 359.134C1736.74 359.134 1730.3 354.177 1730.3 330.381V101.346H1655.93V325.424C1655.93 395.324 1664.36 428.539 1709.97 428.539C1742.69 428.539 1760.04 405.239 1767.97 387.392V414.658C1767.97 448.369 1758.06 453.326 1739.22 453.326H1670.81V522.731H1759.05C1828.95 522.731 1842.34 494.473 1842.34 414.658V101.346H1767.97Z" fill="#FF5500"/>
<path d="M938.873 26.9835V188.101H892.273V26.9835H817.911V423.582H892.273V262.464H938.873V423.582H1013.24V26.9835H938.873Z" fill="white"/>
</svg>
