<?xml version="1.0" encoding="utf-8"?>
<!-- Generator: Adobe Illustrator 24.1.1, SVG Export Plug-In . SVG Version: 6.00 Build 0)  -->
<svg version="1.1" id="Layer_1" xmlns="http://www.w3.org/2000/svg" xmlns:xlink="http://www.w3.org/1999/xlink" x="0px" y="0px"
	 viewBox="0 0 702 489.7" style="enable-background:new 0 0 702 489.7;" xml:space="preserve">
<style type="text/css">
	.st0{fill:#F5F5F5;}
	.st1{fill:#FF5500;}
</style>
<path class="st0" d="M219.1,8.8H134v324.7c0,38.6-2.8,50-21.6,50c-18.7,0-21.6-11.4-21.6-50v-28.4H5.7v34.1
	c0,91.4,38,129.4,106.7,129.4c68.7,0,106.7-38,106.7-129.4V8.8z"/>
<path class="st1" d="M305.2,241.7V123.9c0-46.7-18.5-68.8-61.9-68.8s-62.5,22.2-62.5,68.8v6.6h49.6v-6.6c0-15.9,3.3-22.5,12.9-22.5
	c8.9,0,12.2,3.3,12.2,15.6c-0.3,35.1-78.1,27.8-78.1,103.9c0,39,19.5,55.9,41.7,55.9c18.9,0,28.8-8.6,36.4-27.5
	c0,6,1.7,19.2,9.9,24.2h43C305.2,262.9,305.2,255.6,305.2,241.7z M255.6,222.2c-3.3,4-7.9,8.3-14.6,8.3c-8.3,0-13.9-5.6-13.9-18.5
	c0-20.2,18.2-26.8,28.5-41.7V222.2z"/>
<path class="st1" d="M412,58.4H297.8v46.3h60.6l-60.6,122.4v46.3H412v-46.3h-60.6L412,104.8V58.4z"/>
<path class="st1" d="M521.2,58.4H407.1v46.3h60.6l-60.6,122.4v46.3h114.2v-46.3h-60.5l60.5-122.4V58.4z"/>
<path class="st1" d="M340.1,273c9,0,16.5-6.4,16.5-14.1c0-8.1-7.5-14.5-16.5-14.5c-9,0-16.5,6.4-16.5,14.5
	C323.6,266.7,331.1,273,340.1,273z M323.6,279.7v143.1h33V279.7H323.6z"/>
<path class="st1" d="M401,339.3c-17.2-12.5-22.2-15.2-22.2-22.7c0-4,1.8-8.4,6.8-8.4c5.1,0,7.7,4.4,7.7,17.2h33c0-31-13-48-40.7-48
	c-27.7,0-39.8,16.9-39.8,39.2c0,23.3,13.9,32.4,27.5,41.8c20,13.9,22.2,18.5,22.2,25.1c0,6.2-1.3,10.6-7.5,10.6s-9.2-4.4-9.2-21.6
	h-33c0,39.8,13.4,52.4,42.3,52.4s40.5-16.9,40.5-41.4C428.5,361.3,417.7,351.6,401,339.3z"/>
<path class="st1" d="M471.9,310.5v-30.8h-35.2c11.7-2.9,15.4-18,15.4-33h-33c0.2,13.6-2.4,29.3-15.4,33v30.8h13.2v64.3
	c0,35.4,5.9,48,37,48h18v-30.8h-9.2c-8.4,0-12.8-2.2-12.8-17.2v-64.3H471.9z"/>
<path class="st1" d="M466.8,374.7c0,35.4,14.7,50.2,41.4,50.2c26.6,0,41.4-14.7,41.4-50.2v-47.1c0-35.4-14.7-50.2-41.4-50.2
	c-26.6,0-41.4,14.7-41.4,50.2V374.7z M499.9,374.7v-47.1c0-15,1.1-19.4,8.4-19.4c7,0,8.4,4.4,8.4,19.4v47.1c0,15-1.1,19.4-8.4,19.4
	C501,394.1,499.9,389.7,499.9,374.7z"/>
<path class="st1" d="M605.3,277.4c-15.2,0-22.9,10.3-26.4,18.3v-16.1h-33v143.1h33V321c0-9.9,2.9-12.8,8.4-12.8
	c5.5,0,8.4,2.9,8.4,12.8v11h33v-8.8C628.6,292.2,624.8,277.4,605.3,277.4z"/>
<path class="st1" d="M664,279.7v101.7c0,10.6-2.9,12.8-8.4,12.8c-5.5,0-8.4-2.2-8.4-12.8V279.7h-33v99.5c0,31,3.7,45.8,24,45.8
	c14.5,0,22.2-10.3,25.8-18.3v12.1c0,15-4.4,17.2-12.8,17.2h-30.4v30.8h39.2c31,0,37-12.5,37-48V279.7H664z"/>
<path class="st0" d="M295.9,246.6v71.5h-20.7v-71.5h-33v176.1h33v-71.5h20.7v71.5h33V246.6H295.9z"/>
</svg>
