<?xml version="1.0" encoding="utf-8"?>
<!-- Generator: Adobe Illustrator 24.1.1, SVG Export Plug-In . SVG Version: 6.00 Build 0)  -->
<svg version="1.1" id="Layer_1" xmlns="http://www.w3.org/2000/svg" xmlns:xlink="http://www.w3.org/1999/xlink" x="0px" y="0px"
	 viewBox="0 0 57.4 22.6" style="enable-background:new 0 0 57.4 22.6;" xml:space="preserve">
<style type="text/css">
	.st0{fill:#F5F5F5;}
	.st1{fill:#FF5500;}
</style>
<path class="st0" d="M11.5,1.2H7.8v14.1c0,1.7-0.1,2.2-0.9,2.2s-0.9-0.5-0.9-2.2V14H2.2v1.5c0,4,1.7,5.6,4.6,5.6s4.6-1.7,4.6-5.6
	L11.5,1.2L11.5,1.2z"/>
<path class="st1" d="M15.2,12.1V6.9c0-2-0.8-3-2.7-3s-2.7,1-2.7,3v0.3H12V6.9c0-0.7,0.1-1,0.6-1c0.4,0,0.5,0.1,0.5,0.7
	c0,1.5-3.4,1.2-3.4,4.5c0,1.7,0.8,2.4,1.8,2.4c0.8,0,1.3-0.4,1.6-1.2c0,0.3,0.1,0.8,0.4,1h1.9C15.2,13,15.2,12.7,15.2,12.1z
	 M13.1,11.2c-0.1,0.2-0.3,0.4-0.6,0.4c-0.4,0-0.6-0.2-0.6-0.8c0-0.9,0.8-1.2,1.2-1.8L13.1,11.2L13.1,11.2z"/>
<path class="st1" d="M19.9,4.1h-5v2h2.6l-2.6,5.3v2h5v-2h-2.6l2.6-5.3V4.1z"/>
<path class="st1" d="M24.6,4.1h-5v2h2.6l-2.6,5.3v2h5v-2H22l2.6-5.3V4.1z"/>
<path class="st1" d="M32.1,3.6c0.6,0,1.1-0.4,1.1-0.9c0-0.5-0.5-0.9-1.1-0.9c-0.6,0-1.1,0.4-1.1,0.9C31,3.2,31.5,3.6,32.1,3.6z
	 M31,4.1v9.3h2.2V4.1H31z"/>
<path class="st1" d="M36.1,8c-1.1-0.8-1.5-1-1.5-1.5c0-0.3,0.1-0.5,0.4-0.5c0.3,0,0.5,0.3,0.5,1.1h2.2c0-2-0.8-3.1-2.7-3.1
	S32.5,5,32.5,6.5c0,1.5,0.9,2.1,1.8,2.7c1.3,0.9,1.5,1.2,1.5,1.6c0,0.4-0.1,0.7-0.5,0.7s-0.6-0.3-0.6-1.4h-2.2
	c0,2.6,0.9,3.4,2.8,3.4s2.6-1.1,2.6-2.7C37.9,9.4,37.2,8.8,36.1,8z"/>
<path class="st1" d="M40.7,6.1v-2h-2.3c0.8-0.2,1-1.2,1-2.2h-2.2c0,0.9-0.2,1.9-1,2.2v2h0.9v4.2c0,2.3,0.4,3.1,2.4,3.1h1.2v-2h-0.6
	c-0.5,0-0.8-0.1-0.8-1.1V6.1H40.7z"/>
<path class="st1" d="M40.4,10.3c0,2.3,1,3.3,2.7,3.3s2.7-1,2.7-3.3V7.2c0-2.3-1-3.3-2.7-3.3s-2.7,1-2.7,3.3V10.3z M42.5,10.3V7.2
	c0-1,0.1-1.3,0.5-1.3c0.5,0,0.5,0.3,0.5,1.3v3.1c0,1-0.1,1.3-0.5,1.3C42.6,11.6,42.5,11.3,42.5,10.3z"/>
<path class="st1" d="M49.4,3.9c-1,0-1.5,0.7-1.7,1.2v-1h-2.2v9.3h2.2V6.8c0-0.6,0.2-0.8,0.5-0.8c0.4,0,0.5,0.2,0.5,0.8v0.7h2.2V6.9
	C50.9,4.9,50.7,3.9,49.4,3.9z"/>
<path class="st1" d="M53.3,4.1v6.6c0,0.7-0.2,0.8-0.5,0.8s-0.5-0.1-0.5-0.8V4.1H50v6.5c0,2,0.2,3,1.6,3c0.9,0,1.5-0.7,1.7-1.2v0.8
	c0,1-0.3,1.1-0.8,1.1h-2v2H53c2,0,2.4-0.8,2.4-3.1V4.1H53.3z"/>
<path class="st0" d="M29.2,1.9v4.7h-1.4V1.9h-2.2v11.5h2.2V8.8h1.4v4.7h2.2V1.9H29.2z"/>
</svg>
