<svg width="608" height="498" viewBox="0 0 608 498" fill="none" xmlns="http://www.w3.org/2000/svg">
<path d="M219.126 0.853558H133.973V325.568C133.973 364.171 131.135 375.524 112.401 375.524C93.6677 375.524 90.8293 364.171 90.8293 325.568V297.184H5.67683V331.245C5.67683 422.642 43.7116 460.677 112.401 460.677C181.091 460.677 219.126 422.642 219.126 331.245V0.853558Z" fill="white"/>
<path d="M305.228 252.01V134.217C305.228 87.5635 286.699 65.3947 243.354 65.3947C200.009 65.3947 180.818 87.5635 180.818 134.217V140.835H230.449V134.217C230.449 118.335 233.758 111.718 243.354 111.718C252.287 111.718 255.596 115.026 255.596 127.269C255.265 162.342 177.509 155.063 177.509 231.165C177.509 270.208 197.031 287.083 219.2 287.083C238.06 287.083 247.986 278.48 255.596 259.62C255.596 265.576 257.251 278.811 265.523 283.774H308.537C305.228 273.186 305.228 265.907 305.228 252.01ZM255.596 232.488C252.287 236.459 247.655 240.76 241.038 240.76C232.766 240.76 227.141 235.135 227.141 222.231C227.141 202.047 245.339 195.43 255.596 180.54V232.488Z" fill="#FF5500"/>
<path d="M411.986 68.7035H297.833V115.026H358.384L297.833 237.451V283.774H411.986V237.451H351.435L411.986 115.026V68.7035Z" fill="#FF5500"/>
<path d="M521.227 68.7035H407.074V115.026H467.625L407.074 237.451V283.774H521.227V237.451H460.677L521.227 115.026V68.7035Z" fill="#FF5500"/>
</svg>
