<svg width="84" height="149" viewBox="0 0 84 149" fill="none" xmlns="http://www.w3.org/2000/svg">
<path d="M55.9655 62.5766C38.7966 50.0301 33.7339 47.3887 33.7339 39.9048C33.7339 35.9428 35.4949 31.5405 40.5575 31.5405C45.6201 31.5405 48.2615 35.9428 48.2615 48.7094H81.2787C81.2787 17.6733 68.2919 0.724473 40.5575 0.724473C12.8231 0.724473 0.716769 17.6733 0.716769 39.9048C0.716769 63.237 14.584 72.2617 28.2311 81.7266C48.2615 95.5938 50.4626 100.216 50.4626 106.82C50.4626 112.983 49.1419 117.385 42.9787 117.385C36.8155 117.385 33.7339 112.983 33.7339 95.8139H0.716769C0.716769 135.655 14.1437 148.201 42.9787 148.201C71.8137 148.201 83.4798 131.252 83.4798 106.82C83.4798 84.5881 72.6942 74.903 55.9655 62.5766Z" fill="#FF5500"/>
</svg>
